<?xml version="1.0" standalone="no"?>
<!DOCTYPE svg PUBLIC "-//W3C//DTD SVG 20010904//EN"
 "http://www.w3.org/TR/2001/REC-SVG-20010904/DTD/svg10.dtd">
<svg version="1.0" xmlns="http://www.w3.org/2000/svg"
 width="512.000000pt" height="512.000000pt" viewBox="0 0 512.000000 512.000000"
 preserveAspectRatio="xMidYMid meet">
<metadata>
Created by potrace 1.11, written by Peter Selinger 2001-2013
</metadata>
<g transform="translate(0.000000,512.000000) scale(0.100000,-0.100000)"
fill="#000000" stroke="none">
<path d="M2437 4933 c-1 -1 -34 -4 -72 -7 -39 -3 -86 -8 -105 -10 -19 -3 -55
-8 -80 -11 -114 -15 -345 -80 -489 -136 -90 -36 -328 -154 -341 -169 -3 -3
-29 -21 -58 -38 -30 -18 -59 -37 -65 -43 -7 -5 -48 -37 -92 -70 -135 -103
-242 -202 -335 -311 -18 -21 -37 -35 -43 -31 -5 3 -7 1 -4 -4 6 -9 -42 -80
-80 -121 -7 -7 -20 -26 -30 -42 -9 -17 -21 -30 -25 -30 -4 0 -8 -4 -8 -9 0 -5
-23 -46 -51 -92 -48 -77 -120 -219 -163 -319 -27 -65 -96 -270 -96 -287 0 -8
-3 -12 -7 -10 -5 3 -8 -7 -9 -21 -1 -32 -12 -99 -22 -127 -9 -29 -9 -32 -11
-71 0 -19 -4 -33 -8 -31 -5 3 -8 -15 -9 -39 -2 -118 -4 -135 -15 -128 -8 4 -8
0 0 -15 7 -12 9 -26 6 -32 -13 -20 -3 -354 10 -367 2 -2 0 -15 -6 -29 -5 -14
-5 -22 0 -18 9 5 25 -97 26 -162 0 -17 2 -29 5 -27 2 3 10 -16 17 -43 8 -32 9
-49 2 -54 -7 -4 -5 -8 4 -12 12 -4 23 -37 32 -97 0 -3 3 -9 6 -15 7 -10 29
-77 33 -98 3 -13 11 -34 56 -138 16 -39 27 -76 23 -82 -3 -5 -2 -7 4 -4 14 9
65 -97 57 -119 -4 -14 -4 -16 4 -5 8 11 12 10 21 -7 14 -27 14 -35 -1 -26 -7
4 -8 3 -4 -5 4 -6 12 -9 17 -6 5 4 12 -2 16 -12 4 -10 18 -34 32 -52 14 -19
19 -31 11 -27 -8 5 -5 -1 8 -13 12 -12 19 -28 16 -34 -4 -7 -4 -9 1 -5 9 9 57
-51 50 -63 -3 -4 0 -11 6 -15 8 -5 10 -2 5 7 -8 16 12 -8 40 -47 11 -15 33
-43 51 -62 17 -20 29 -41 26 -46 -4 -6 -3 -8 2 -4 10 9 67 -51 59 -63 -3 -5
-2 -9 3 -8 16 4 43 -13 43 -27 0 -8 4 -14 9 -14 4 0 36 -27 70 -60 34 -33 64
-60 67 -60 4 0 44 -33 74 -60 8 -8 28 -21 42 -29 15 -8 26 -17 23 -20 -2 -4 9
-12 24 -19 15 -7 36 -20 47 -30 10 -10 39 -29 64 -42 25 -14 47 -27 50 -30 3
-3 39 -23 80 -44 41 -22 78 -43 81 -48 3 -6 9 -9 13 -9 20 3 26 0 20 -11 -4
-6 -3 -8 4 -4 11 6 62 -12 62 -23 0 -3 12 -7 27 -8 15 0 29 -6 31 -12 2 -6 8
-9 13 -5 5 3 9 -3 9 -13 0 -13 2 -15 9 -5 6 10 19 8 64 -12 30 -13 58 -22 60
-19 3 2 24 -5 46 -15 23 -11 38 -16 35 -10 -4 5 4 4 17 -3 13 -7 28 -12 33
-11 15 5 46 -9 41 -18 -3 -5 0 -12 6 -16 8 -4 9 -3 5 4 -5 8 2 12 19 12 14 0
24 -3 21 -8 -2 -4 12 -8 32 -8 78 -2 93 -4 88 -13 -4 -5 3 -7 14 -4 11 3 26 0
34 -6 8 -7 17 -8 20 -3 8 13 67 2 59 -12 -3 -6 0 -6 8 2 14 13 33 17 25 4 -2
-4 14 -6 35 -4 28 3 46 -1 59 -13 13 -12 20 -13 26 -4 4 7 3 10 -4 5 -6 -3
-14 -2 -17 4 -9 14 55 10 74 -4 11 -8 13 -8 7 2 -4 7 -1 12 8 12 10 0 13 -6
10 -17 -5 -15 -4 -16 5 -3 8 11 33 15 103 17 51 0 93 2 93 3 0 1 16 4 35 5 19
1 55 6 80 10 25 4 62 8 82 9 21 0 38 4 38 7 0 3 6 6 13 6 13 0 123 23 147 30
13 4 13 4 0 -6 -11 -8 -11 -11 -2 -11 7 0 15 6 18 13 3 8 10 14 17 15 23 1 56
11 77 22 11 6 24 8 29 5 5 -3 11 0 13 5 2 6 20 12 40 13 20 1 34 5 32 9 -5 8
52 28 60 21 3 -4 6 -1 6 5 0 7 7 12 16 12 9 0 12 -5 8 -12 -4 -7 -3 -8 5 -4 6
4 9 11 7 15 -7 11 143 73 156 65 7 -4 8 -3 4 4 -6 11 70 58 87 54 4 -1 7 3 7
8 0 6 4 10 9 10 5 0 33 16 62 35 29 19 56 32 61 29 5 -3 7 0 6 7 -2 6 3 14 11
17 8 2 11 0 7 -6 -3 -6 -2 -13 3 -17 6 -3 8 4 6 15 -3 13 2 23 13 27 9 3 25
15 35 25 10 10 22 16 28 13 5 -4 9 0 9 8 0 14 27 32 43 29 4 -1 7 4 7 12 0 13
27 31 42 28 4 -1 10 7 13 18 4 11 10 20 14 20 4 0 25 18 47 40 21 22 45 38 52
35 7 -3 10 0 7 5 -3 6 -1 10 6 10 7 0 10 2 7 5 -7 8 113 131 124 127 5 -1 7 2
3 7 -7 12 35 62 46 55 5 -3 6 1 3 9 -3 8 3 21 14 28 10 8 24 24 31 37 17 33
48 62 57 54 4 -4 4 -2 0 5 -8 15 22 65 35 57 5 -3 6 1 3 9 -3 8 2 20 11 27 8
7 15 17 15 22 0 5 15 32 33 61 18 29 41 71 52 94 11 24 24 43 28 43 5 0 5 5 2
10 -3 6 0 13 9 16 9 3 12 12 9 21 -4 9 -2 14 3 11 5 -4 10 5 11 19 0 14 6 29
13 33 6 4 11 10 11 14 -3 20 0 26 9 21 6 -3 7 1 4 9 -3 9 -1 16 6 16 6 0 9 4
5 10 -3 5 1 26 10 47 13 30 38 109 69 218 2 6 7 29 11 52 4 24 10 41 14 39 3
-2 7 12 8 33 1 20 4 45 7 56 2 11 5 33 5 48 1 20 5 26 14 21 9 -6 9 -5 0 7 -7
9 -8 20 -3 29 5 8 6 18 4 22 -3 4 1 8 8 8 8 0 9 3 3 8 -15 10 -7 124 8 115 8
-4 8 -2 0 9 -7 8 -10 18 -6 21 6 7 5 113 -4 271 -3 55 -6 120 -7 143 0 24 -4
43 -7 43 -4 0 -9 24 -13 53 -9 65 -54 263 -65 285 -13 25 -53 156 -51 166 1 5
-4 12 -10 16 -7 4 -13 19 -13 33 -1 14 -4 23 -6 21 -8 -8 -41 78 -34 90 3 6 3
8 -1 4 -10 -9 -77 122 -69 135 3 6 1 7 -5 3 -7 -4 -17 8 -27 31 -9 20 -19 40
-23 43 -5 3 -20 25 -34 50 -14 25 -38 59 -52 75 -14 17 -26 33 -26 38 0 4 -8
16 -17 26 -10 11 -22 26 -28 33 -70 94 -233 264 -337 350 -36 31 -63 60 -60
64 4 4 2 4 -4 1 -6 -4 -22 3 -35 14 -93 82 -408 259 -554 312 -38 14 -81 30
-95 35 -83 35 -343 96 -455 107 -16 2 -59 6 -95 10 -61 6 -329 13 -333 8z"/>
<path d="M4235 931 c-3 -5 -2 -12 3 -15 5 -3 9 1 9 9 0 17 -3 19 -12 6z"/>
<path d="M1266 598 c3 -5 10 -6 15 -3 13 9 11 12 -6 12 -8 0 -12 -4 -9 -9z"/>
<path d="M1406 518 c3 -5 10 -6 15 -3 13 9 11 12 -6 12 -8 0 -12 -4 -9 -9z"/>
<path d="M1535 460 c-3 -5 -1 -10 4 -10 6 0 11 5 11 10 0 6 -2 10 -4 10 -3 0
-8 -4 -11 -10z"/>
<path d="M3554 448 l-19 -23 25 20 c14 11 27 21 29 22 2 2 0 3 -6 3 -5 0 -18
-10 -29 -22z"/>
<path d="M1735 380 c3 -5 8 -10 11 -10 2 0 4 5 4 10 0 6 -5 10 -11 10 -5 0 -7
-4 -4 -10z"/>
<path d="M1856 347 c3 -10 9 -15 12 -12 3 3 0 11 -7 18 -10 9 -11 8 -5 -6z"/>
<path d="M1970 299 c0 -5 5 -7 10 -4 6 3 10 8 10 11 0 2 -4 4 -10 4 -5 0 -10
-5 -10 -11z"/>
<path d="M2880 260 c-9 -6 -10 -10 -3 -10 6 0 15 5 18 10 8 12 4 12 -15 0z"/>
<path d="M2916 262 c-3 -5 1 -9 9 -9 8 0 12 4 9 9 -3 4 -7 8 -9 8 -2 0 -6 -4
-9 -8z"/>
<path d="M2970 266 c0 -2 7 -7 16 -10 8 -3 12 -2 9 4 -6 10 -25 14 -25 6z"/>
<path d="M2670 220 c0 -5 5 -10 11 -10 5 0 7 5 4 10 -3 6 -8 10 -11 10 -2 0
-4 -4 -4 -10z"/>
</g>
</svg>
